<svg xmlns="http://www.w3.org/2000/svg" viewBox="0 0 512 512">
  <rect width="512" height="512" rx="96" fill="#2563eb"/>
  <rect x="86" y="230" width="340" height="52" rx="26" fill="#ffffff"/>
  <rect x="46" y="198" width="64" height="116" rx="24" fill="#dbeafe"/>
  <rect x="402" y="198" width="64" height="116" rx="24" fill="#dbeafe"/>
  <rect x="136" y="176" width="50" height="160" rx="22" fill="#bfdbfe"/>
  <rect x="326" y="176" width="50" height="160" rx="22" fill="#bfdbfe"/>
  <path d="M221 168h70c20 0 34 15 34 35v106c0 20-14 35-34 35h-70c-20 0-34-15-34-35V203c0-20 14-35 34-35Z" fill="#ffffff"/>
  <path d="M226 248h60v34h-60z" fill="#2563eb"/>
</svg>
